STARTFONT 2.1
FONT -Adobe-New Century Schoolbook-Bold-R-Normal--14-100-100-100-P-87-ISO8859-2
SIZE 10 100 100
FONTBOUNDINGBOX 20 18 -2 -3
COMMENT $XConsortium: ncenB10.bdf,v 1.7 95/01/26 17:55:46 gildea Exp $
COMMENT 
COMMENT +
COMMENT  Copyright 1984-1989, 1994 Adobe Systems Incorporated.
COMMENT  Copyright 1988, 1994 Digital Equipment Corporation.
COMMENT
COMMENT  Adobe is a trademark of Adobe Systems Incorporated which may be
COMMENT  registered in certain jurisdictions.
COMMENT  Permission to use these trademarks is hereby granted only in
COMMENT  association with the images described in this file.
COMMENT
COMMENT  Permission to use, copy, modify, distribute and sell this software
COMMENT  and its documentation for any purpose and without fee is hereby
COMMENT  granted, provided that the above copyright notices appear in all
COMMENT  copies and that both those copyright notices and this permission
COMMENT  notice appear in supporting documentation, and that the names of
COMMENT  Adobe Systems and Digital Equipment Corporation not be used in
COMMENT  advertising or publicity pertaining to distribution of the software
COMMENT  without specific, written prior permission.  Adobe Systems and
COMMENT  Digital Equipment Corporation make no representations about the
COMMENT  suitability of this software for any purpose.  It is provided "as
COMMENT  is" without express or implied warranty.
COMMENT -
COMMENT  
COMMENT  Translation to ISO8859-2 by Cub Soft;  Petr.Kolar@vslib.cz
COMMENT  
STARTPROPERTIES 28
FOUNDRY "Adobe"
FAMILY_NAME "New Century Schoolbook"
WEIGHT_NAME "Bold"
SLANT "R"
SETWIDTH_NAME "Normal"
ADD_STYLE_NAME ""
PIXEL_SIZE 14
POINT_SIZE 100
RESOLUTION_X 100
RESOLUTION_Y 100
SPACING "P"
AVERAGE_WIDTH 87
CHARSET_REGISTRY "ISO8859"
CHARSET_ENCODING "2"
CAP_HEIGHT 11
X_HEIGHT 7
FONT_ASCENT 13
FONT_DESCENT 3
FACE_NAME "New Century Schoolbook Bold"

STARTCHAR space
ENCODING 32
SWIDTH 287 0
DWIDTH 4 0
BBX 1 1 0 0
BITMAP
00
ENDCHAR
STARTCHAR exclam
ENCODING 33
SWIDTH 296 0
DWIDTH 4 0
BBX 2 11 1 0
BITMAP
c0
c0
c0
c0
c0
80
80
00
c0
c0
c0
ENDCHAR
STARTCHAR quotedbl
ENCODING 34
SWIDTH 333 0
DWIDTH 5 0
BBX 3 4 1 7
BITMAP
a0
a0
a0
a0
ENDCHAR
STARTCHAR numbersign
ENCODING 35
SWIDTH 574 0
DWIDTH 8 0
BBX 7 10 0 0
BITMAP
14
14
14
7e
28
28
fc
50
50
50
ENDCHAR
STARTCHAR dollar
ENCODING 36
SWIDTH 574 0
DWIDTH 8 0
BBX 7 13 0 -1
BITMAP
10
7c
d6
96
d0
f0
7c
1e
16
d2
d6
7c
10
ENDCHAR
STARTCHAR percent
ENCODING 37
SWIDTH 833 0
DWIDTH 13 0
BBX 12 11 0 0
BITMAP
3080
6f00
c900
ca00
d200
6460
04d0
0990
0990
11a0
10c0
ENDCHAR
STARTCHAR ampersand
ENCODING 38
SWIDTH 852 0
DWIDTH 13 0
BBX 12 11 0 0
BITMAP
1e00
3300
3300
3200
1c00
3ce0
4e40
c780
c390
e3e0
7cc0
ENDCHAR
STARTCHAR apostrophe
ENCODING 39
SWIDTH 241 0
DWIDTH 4 0
BBX 2 5 1 6
BITMAP
c0
c0
c0
40
80
ENDCHAR
STARTCHAR parenleft
ENCODING 40
SWIDTH 389 0
DWIDTH 5 0
BBX 4 13 0 -2
BITMAP
10
20
60
40
c0
c0
c0
c0
c0
40
60
20
10
ENDCHAR
STARTCHAR parenright
ENCODING 41
SWIDTH 389 0
DWIDTH 5 0
BBX 4 13 0 -2
BITMAP
80
40
60
20
30
30
30
30
30
20
60
40
80
ENDCHAR
STARTCHAR asterisk
ENCODING 42
SWIDTH 500 0
DWIDTH 6 0
BBX 5 5 0 6
BITMAP
20
a8
70
a8
20
ENDCHAR
STARTCHAR plus
ENCODING 43
SWIDTH 606 0
DWIDTH 8 0
BBX 7 7 0 1
BITMAP
10
10
10
fe
10
10
10
ENDCHAR
STARTCHAR comma
ENCODING 44
SWIDTH 278 0
DWIDTH 4 0
BBX 2 5 1 -2
BITMAP
c0
c0
c0
40
80
ENDCHAR
STARTCHAR minus
ENCODING 45
SWIDTH 606 0
DWIDTH 8 0
BBX 7 1 0 4
BITMAP
fe
ENDCHAR
STARTCHAR period
ENCODING 46
SWIDTH 278 0
DWIDTH 4 0
BBX 2 3 1 0
BITMAP
c0
c0
c0
ENDCHAR
STARTCHAR slash
ENCODING 47
SWIDTH 278 0
DWIDTH 5 0
BBX 4 11 0 0
BITMAP
10
10
10
20
20
20
40
40
40
80
80
ENDCHAR
STARTCHAR zero
ENCODING 48
SWIDTH 574 0
DWIDTH 8 0
BBX 7 11 0 0
BITMAP
38
6c
c6
c6
c6
c6
c6
c6
c6
6c
38
ENDCHAR
STARTCHAR one
ENCODING 49
SWIDTH 574 0
DWIDTH 8 0
BBX 5 11 1 0
BITMAP
30
f0
30
30
30
30
30
30
30
30
78
ENDCHAR
STARTCHAR two
ENCODING 50
SWIDTH 574 0
DWIDTH 8 0
BBX 7 11 0 0
BITMAP
78
ce
c6
06
06
0c
18
30
62
fe
fe
ENDCHAR
STARTCHAR three
ENCODING 51
SWIDTH 574 0
DWIDTH 8 0
BBX 7 11 0 0
BITMAP
78
ce
c6
06
0c
3c
06
06
c6
ce
78
ENDCHAR
STARTCHAR four
ENCODING 52
SWIDTH 574 0
DWIDTH 8 0
BBX 7 11 0 0
BITMAP
0c
1c
1c
2c
2c
4c
4c
fe
0c
0c
1e
ENDCHAR
STARTCHAR five
ENCODING 53
SWIDTH 574 0
DWIDTH 8 0
BBX 7 11 0 0
BITMAP
7e
7c
40
40
5c
6e
06
06
c6
ce
78
ENDCHAR
STARTCHAR six
ENCODING 54
SWIDTH 574 0
DWIDTH 8 0
BBX 7 11 0 0
BITMAP
3c
66
c6
c0
dc
ee
c6
c6
c6
e6
78
ENDCHAR
STARTCHAR seven
ENCODING 55
SWIDTH 574 0
DWIDTH 8 0
BBX 7 11 0 0
BITMAP
fe
fe
84
8c
0c
18
18
18
30
30
30
ENDCHAR
STARTCHAR eight
ENCODING 56
SWIDTH 574 0
DWIDTH 8 0
BBX 7 11 0 0
BITMAP
78
e6
c6
c6
f4
3c
5e
c6
c6
ce
3c
ENDCHAR
STARTCHAR nine
ENCODING 57
SWIDTH 574 0
DWIDTH 8 0
BBX 7 11 0 0
BITMAP
3c
ce
c6
c6
c6
ee
76
06
c6
cc
78
ENDCHAR
STARTCHAR colon
ENCODING 58
SWIDTH 278 0
DWIDTH 4 0
BBX 2 7 1 0
BITMAP
c0
c0
c0
00
c0
c0
c0
ENDCHAR
STARTCHAR semicolon
ENCODING 59
SWIDTH 278 0
DWIDTH 4 0
BBX 2 9 1 -2
BITMAP
c0
c0
c0
00
c0
c0
c0
40
80
ENDCHAR
STARTCHAR less
ENCODING 60
SWIDTH 606 0
DWIDTH 8 0
BBX 7 7 0 1
BITMAP
02
0e
38
e0
38
0e
02
ENDCHAR
STARTCHAR equal
ENCODING 61
SWIDTH 606 0
DWIDTH 8 0
BBX 7 3 0 3
BITMAP
fe
00
fe
ENDCHAR
STARTCHAR greater
ENCODING 62
SWIDTH 606 0
DWIDTH 8 0
BBX 7 7 0 1
BITMAP
80
e0
38
0e
38
e0
80
ENDCHAR
STARTCHAR question
ENCODING 63
SWIDTH 500 0
DWIDTH 7 0
BBX 6 11 0 0
BITMAP
78
cc
cc
0c
18
30
20
00
30
30
30
ENDCHAR
STARTCHAR at
ENCODING 64
SWIDTH 747 0
DWIDTH 14 0
BBX 13 11 0 0
BITMAP
0fc0
3870
6398
6cd8
ccd8
d998
d9b0
dbb0
cdc0
6010
3fe0
ENDCHAR
STARTCHAR A
ENCODING 65
SWIDTH 759 0
DWIDTH 11 0
BBX 10 11 0 0
BITMAP
0c00
0c00
1600
1600
1200
2300
2300
3f00
4180
4180
e3c0
ENDCHAR
STARTCHAR B
ENCODING 66
SWIDTH 778 0
DWIDTH 10 0
BBX 9 11 0 0
BITMAP
fe00
6300
6300
6300
6600
7f00
6180
6180
6180
6380
fe00
ENDCHAR
STARTCHAR C
ENCODING 67
SWIDTH 778 0
DWIDTH 11 0
BBX 10 11 0 0
BITMAP
1f40
70c0
6040
c040
c000
c000
c000
c000
6040
70c0
1f00
ENDCHAR
STARTCHAR D
ENCODING 68
SWIDTH 833 0
DWIDTH 12 0
BBX 11 11 0 0
BITMAP
ff00
61c0
60c0
6060
6060
6060
6060
6060
60c0
61c0
ff00
ENDCHAR
STARTCHAR E
ENCODING 69
SWIDTH 759 0
DWIDTH 10 0
BBX 9 11 0 0
BITMAP
ff80
6180
6080
6480
6400
7c00
6400
6480
6080
6180
ff80
ENDCHAR
STARTCHAR F
ENCODING 70
SWIDTH 722 0
DWIDTH 10 0
BBX 9 11 0 0
BITMAP
ff80
6180
6080
6480
6400
7c00
6400
6400
6000
6000
f000
ENDCHAR
STARTCHAR G
ENCODING 71
SWIDTH 833 0
DWIDTH 12 0
BBX 11 11 0 0
BITMAP
1f40
70c0
6040
c040
c000
c000
c3e0
c0c0
60c0
71c0
1e40
ENDCHAR
STARTCHAR H
ENCODING 72
SWIDTH 870 0
DWIDTH 12 0
BBX 11 11 0 0
BITMAP
f1e0
60c0
60c0
60c0
60c0
7fc0
60c0
60c0
60c0
60c0
f1e0
ENDCHAR
STARTCHAR I
ENCODING 73
SWIDTH 444 0
DWIDTH 7 0
BBX 4 11 1 0
BITMAP
f0
60
60
60
60
60
60
60
60
60
f0
ENDCHAR
STARTCHAR J
ENCODING 74
SWIDTH 648 0
DWIDTH 9 0
BBX 7 11 0 0
BITMAP
1e
0c
0c
0c
0c
0c
0c
cc
cc
9c
70
ENDCHAR
STARTCHAR K
ENCODING 75
SWIDTH 815 0
DWIDTH 12 0
BBX 11 11 0 0
BITMAP
f3c0
6100
6200
6400
6800
7c00
6e00
6700
6380
61c0
f3e0
ENDCHAR
STARTCHAR L
ENCODING 76
SWIDTH 722 0
DWIDTH 10 0
BBX 9 11 0 0
BITMAP
f000
6000
6000
6000
6000
6000
6000
6080
6080
6180
ff80
ENDCHAR
STARTCHAR M
ENCODING 77
SWIDTH 981 0
DWIDTH 14 0
BBX 13 11 0 0
BITMAP
f078
7070
7070
58b0
58b0
58b0
4d30
4d30
4d30
4630
e678
ENDCHAR
STARTCHAR N
ENCODING 78
SWIDTH 833 0
DWIDTH 12 0
BBX 11 11 0 0
BITMAP
e0e0
7040
7840
5c40
4c40
4640
4740
43c0
41c0
40c0
e040
ENDCHAR
STARTCHAR O
ENCODING 79
SWIDTH 833 0
DWIDTH 12 0
BBX 11 11 0 0
BITMAP
1f00
71c0
60c0
c060
c060
c060
c060
c060
60c0
71c0
1f00
ENDCHAR
STARTCHAR P
ENCODING 80
SWIDTH 759 0
DWIDTH 10 0
BBX 9 11 0 0
BITMAP
ff00
6380
6180
6180
6380
7e00
6000
6000
6000
6000
f000
ENDCHAR
STARTCHAR Q
ENCODING 81
SWIDTH 833 0
DWIDTH 12 0
BBX 11 14 0 -3
BITMAP
1f00
71c0
60c0
c060
c060
c060
c060
dc60
66c0
73c0
1f00
0320
03a0
01c0
ENDCHAR
STARTCHAR R
ENCODING 82
SWIDTH 815 0
DWIDTH 12 0
BBX 11 11 0 0
BITMAP
ff00
6380
6180
6180
6300
7e00
6300
6300
6180
61a0
f1c0
ENDCHAR
STARTCHAR S
ENCODING 83
SWIDTH 667 0
DWIDTH 10 0
BBX 9 11 0 0
BITMAP
3d00
e300
c100
c100
f000
7e00
0f80
8180
8180
c380
be00
ENDCHAR
STARTCHAR T
ENCODING 84
SWIDTH 722 0
DWIDTH 11 0
BBX 10 11 0 0
BITMAP
ffc0
ccc0
8c40
8c40
0c00
0c00
0c00
0c00
0c00
0c00
1e00
ENDCHAR
STARTCHAR U
ENCODING 85
SWIDTH 833 0
DWIDTH 12 0
BBX 11 11 0 0
BITMAP
f0e0
6040
6040
6040
6040
6040
6040
6040
6040
3080
1f00
ENDCHAR
STARTCHAR V
ENCODING 86
SWIDTH 759 0
DWIDTH 11 0
BBX 10 11 0 0
BITMAP
f1c0
6080
6080
3100
3100
3100
1a00
1a00
1a00
0c00
0c00
ENDCHAR
STARTCHAR W
ENCODING 87
SWIDTH 981 0
DWIDTH 14 0
BBX 13 11 0 0
BITMAP
f7b8
6310
6310
6310
35a0
35a0
35a0
35a0
18c0
18c0
18c0
ENDCHAR
STARTCHAR X
ENCODING 88
SWIDTH 722 0
DWIDTH 12 0
BBX 11 11 0 0
BITMAP
f9e0
70c0
3080
1900
0d00
0e00
1600
1300
2180
61c0
f3e0
ENDCHAR
STARTCHAR Y
ENCODING 89
SWIDTH 722 0
DWIDTH 11 0
BBX 10 11 0 0
BITMAP
f1c0
6080
3100
3100
1a00
1a00
0c00
0c00
0c00
0c00
1e00
ENDCHAR
STARTCHAR Z
ENCODING 90
SWIDTH 667 0
DWIDTH 9 0
BBX 8 11 0 0
BITMAP
ff
c3
87
8e
0c
18
30
71
e1
c3
ff
ENDCHAR
STARTCHAR bracketleft
ENCODING 91
SWIDTH 389 0
DWIDTH 5 0
BBX 4 13 0 -2
BITMAP
f0
c0
c0
c0
c0
c0
c0
c0
c0
c0
c0
c0
f0
ENDCHAR
STARTCHAR backslash
ENCODING 92
SWIDTH 606 0
DWIDTH 7 0
BBX 6 11 0 0
BITMAP
80
80
40
40
20
20
10
10
08
08
04
ENDCHAR
STARTCHAR bracketright
ENCODING 93
SWIDTH 389 0
DWIDTH 5 0
BBX 4 13 0 -2
BITMAP
f0
30
30
30
30
30
30
30
30
30
30
30
f0
ENDCHAR
STARTCHAR asciicircum
ENCODING 94
SWIDTH 606 0
DWIDTH 8 0
BBX 7 7 0 4
BITMAP
10
10
38
28
6c
44
c6
ENDCHAR
STARTCHAR underscore
ENCODING 95
SWIDTH 500 0
DWIDTH 7 0
BBX 7 1 0 -2
BITMAP
fe
ENDCHAR
STARTCHAR grave
ENCODING 96
SWIDTH 333 0
DWIDTH 6 0
BBX 4 3 1 8
BITMAP
c0
60
10
ENDCHAR
STARTCHAR a
ENCODING 97
SWIDTH 611 0
DWIDTH 9 0
BBX 8 7 0 0
BITMAP
3c
66
06
3e
c6
ce
77
ENDCHAR
STARTCHAR b
ENCODING 98
SWIDTH 648 0
DWIDTH 10 0
BBX 9 11 0 0
BITMAP
e000
6000
6000
6000
6e00
7300
6180
6180
6180
6300
5e00
ENDCHAR
STARTCHAR c
ENCODING 99
SWIDTH 556 0
DWIDTH 8 0
BBX 7 7 0 0
BITMAP
3c
66
c6
c0
c2
66
3c
ENDCHAR
STARTCHAR d
ENCODING 100
SWIDTH 667 0
DWIDTH 10 0
BBX 9 11 0 0
BITMAP
0700
0300
0300
0300
3b00
6700
c300
c300
c300
6700
3b80
ENDCHAR
STARTCHAR e
ENCODING 101
SWIDTH 574 0
DWIDTH 9 0
BBX 8 7 0 0
BITMAP
3c
66
c3
ff
c0
63
3e
ENDCHAR
STARTCHAR f
ENCODING 102
SWIDTH 389 0
DWIDTH 6 0
BBX 6 11 0 0
BITMAP
38
6c
6c
60
f8
60
60
60
60
60
f0
ENDCHAR
STARTCHAR g
ENCODING 103
SWIDTH 611 0
DWIDTH 8 0
BBX 7 11 0 -3
BITMAP
06
7c
c6
c6
7c
80
fc
7e
82
86
7c
ENDCHAR
STARTCHAR h
ENCODING 104
SWIDTH 685 0
DWIDTH 10 0
BBX 9 11 0 0
BITMAP
e000
6000
6000
6000
6e00
7300
6300
6300
6300
6300
f780
ENDCHAR
STARTCHAR i
ENCODING 105
SWIDTH 370 0
DWIDTH 5 0
BBX 4 10 0 0
BITMAP
60
60
00
e0
60
60
60
60
60
f0
ENDCHAR
STARTCHAR j
ENCODING 106
SWIDTH 352 0
DWIDTH 5 0
BBX 5 13 -2 -3
BITMAP
18
18
00
38
18
18
18
18
18
18
18
d8
70
ENDCHAR
STARTCHAR k
ENCODING 107
SWIDTH 667 0
DWIDTH 9 0
BBX 8 11 0 0
BITMAP
e0
60
60
60
67
66
6c
78
6c
66
e7
ENDCHAR
STARTCHAR l
ENCODING 108
SWIDTH 352 0
DWIDTH 5 0
BBX 4 11 0 0
BITMAP
e0
60
60
60
60
60
60
60
60
60
f0
ENDCHAR
STARTCHAR m
ENCODING 109
SWIDTH 963 0
DWIDTH 15 0
BBX 14 7 0 0
BITMAP
ee70
7398
6318
6318
6318
6318
f7bc
ENDCHAR
STARTCHAR n
ENCODING 110
SWIDTH 685 0
DWIDTH 10 0
BBX 9 7 0 0
BITMAP
ee00
7300
6300
6300
6300
6300
f780
ENDCHAR
STARTCHAR o
ENCODING 111
SWIDTH 611 0
DWIDTH 9 0
BBX 8 7 0 0
BITMAP
3c
66
c3
c3
c3
66
3c
ENDCHAR
STARTCHAR p
ENCODING 112
SWIDTH 667 0
DWIDTH 10 0
BBX 9 10 0 -3
BITMAP
ee00
7300
6180
6180
6180
7300
6e00
6000
6000
f000
ENDCHAR
STARTCHAR q
ENCODING 113
SWIDTH 648 0
DWIDTH 9 0
BBX 9 10 0 -3
BITMAP
3d00
6700
c300
c300
c300
6700
3b00
0300
0300
0780
ENDCHAR
STARTCHAR r
ENCODING 114
SWIDTH 519 0
DWIDTH 7 0
BBX 7 7 0 0
BITMAP
ee
76
60
60
60
60
f0
ENDCHAR
STARTCHAR s
ENCODING 115
SWIDTH 500 0
DWIDTH 7 0
BBX 6 7 0 0
BITMAP
7c
c4
e0
78
1c
8c
f8
ENDCHAR
STARTCHAR t
ENCODING 116
SWIDTH 426 0
DWIDTH 6 0
BBX 6 10 0 0
BITMAP
20
20
60
f8
60
60
60
64
64
38
ENDCHAR
STARTCHAR u
ENCODING 117
SWIDTH 685 0
DWIDTH 10 0
BBX 9 7 0 0
BITMAP
e700
6300
6300
6300
6300
6700
3b80
ENDCHAR
STARTCHAR v
ENCODING 118
SWIDTH 611 0
DWIDTH 7 0
BBX 8 7 -1 0
BITMAP
f7
62
62
34
34
18
18
ENDCHAR
STARTCHAR w
ENCODING 119
SWIDTH 889 0
DWIDTH 12 0
BBX 13 7 -1 0
BITMAP
f7b8
6310
6310
35a0
35a0
18c0
18c0
ENDCHAR
STARTCHAR x
ENCODING 120
SWIDTH 611 0
DWIDTH 9 0
BBX 8 7 0 0
BITMAP
e7
66
3c
18
3c
46
e7
ENDCHAR
STARTCHAR y
ENCODING 121
SWIDTH 611 0
DWIDTH 7 0
BBX 8 10 -1 -3
BITMAP
f7
62
62
34
34
18
18
10
d0
e0
ENDCHAR
STARTCHAR z
ENCODING 122
SWIDTH 537 0
DWIDTH 7 0
BBX 6 7 0 0
BITMAP
fc
8c
18
30
60
c4
fc
ENDCHAR
STARTCHAR braceleft
ENCODING 123
SWIDTH 389 0
DWIDTH 6 0
BBX 5 13 0 -2
BITMAP
18
20
60
60
60
40
80
40
60
60
60
20
18
ENDCHAR
STARTCHAR bar
ENCODING 124
SWIDTH 606 0
DWIDTH 8 0
BBX 1 11 3 0
BITMAP
80
80
80
80
80
80
80
80
80
80
80
ENDCHAR
STARTCHAR braceright
ENCODING 125
SWIDTH 389 0
DWIDTH 6 0
BBX 5 13 0 -2
BITMAP
c0
20
30
30
30
10
08
10
30
30
30
20
c0
ENDCHAR
STARTCHAR asciitilde
ENCODING 126
SWIDTH 606 0
DWIDTH 8 0
BBX 7 2 0 4
BITMAP
76
dc
ENDCHAR
STARTCHAR nobreakspace
ENCODING 160
SWIDTH 287 0
DWIDTH 4 0
BBX 1 1 0 0
BITMAP
00
ENDCHAR
STARTCHAR Aogonek
ENCODING 161
SWIDTH 759 0
DWIDTH 11 0
BBX 10 14 0 -3
BITMAP
0c00
0c00
1600
1600
1200
2300
2300
3f00
4180
4180
e3c0
0800
1000
1c00
ENDCHAR
STARTCHAR breve
ENCODING 162
SWIDTH 333 0
DWIDTH 7 0
BBX 5 3 1 8
BITMAP
88
d8
70
ENDCHAR
STARTCHAR Lstroke
ENCODING 163
SWIDTH 722 0
DWIDTH 10 0
BBX 9 11 0 0
BITMAP
f000
6000
6000
6000
7000
6000
e000
6080
6080
6180
ff80
ENDCHAR
STARTCHAR currency
ENCODING 164
SWIDTH 606 0
DWIDTH 9 0
BBX 8 8 0 2
BITMAP
99
7e
66
c3
c3
66
7e
99
ENDCHAR
STARTCHAR Lcaron
ENCODING 165
SWIDTH 722 0
DWIDTH 10 0
BBX 9 12 0 0
BITMAP
0600
f600
6600
6200
6400
6000
6000
6000
6080
6080
6180
ff80
ENDCHAR
STARTCHAR Sacute
ENCODING 166
SWIDTH 667 0
DWIDTH 10 0
BBX 9 15 0 0
BITMAP
0600
0c00
1000
0000
3d00
e300
c100
c100
f000
7e00
0f80
8180
8180
c380
be00
ENDCHAR
STARTCHAR section
ENCODING 167
SWIDTH 500 0
DWIDTH 7 0
BBX 6 13 0 -2
BITMAP
38
6c
4c
60
78
9c
cc
e4
78
1c
cc
c8
70
ENDCHAR
STARTCHAR diaeresis
ENCODING 168
SWIDTH 333 0
DWIDTH 7 0
BBX 5 2 1 8
BITMAP
d8
d8
ENDCHAR
STARTCHAR Scaron
ENCODING 169
SWIDTH 667 0
DWIDTH 10 0
BBX 9 15 0 0
BITMAP
6c00
3800
1000
0000
3d00
e300
c100
c100
f000
7e00
0f80
8180
8180
c380
be00
ENDCHAR
STARTCHAR Scedilla
ENCODING 170
SWIDTH 667 0
DWIDTH 10 0
BBX 9 14 0 -3
BITMAP
3d00
e300
c100
c100
f000
7e00
0f80
8180
8180
c380
be00
0800
0400
1c00
ENDCHAR
STARTCHAR Tcaron
ENCODING 171
SWIDTH 722 0
DWIDTH 11 0
BBX 10 15 0 0
BITMAP
3600
1c00
0800
0000
ffc0
ccc0
8c40
8c40
0c00
0c00
0c00
0c00
0c00
0c00
1e00
ENDCHAR
STARTCHAR Zacute
ENCODING 172
SWIDTH 667 0
DWIDTH 9 0
BBX 8 15 0 0
BITMAP
06
0c
10
00
ff
c3
87
8e
0c
18
30
71
e1
c3
ff
ENDCHAR
STARTCHAR hyphen
ENCODING 173
SWIDTH 333 0
DWIDTH 5 0
BBX 4 2 0 3
BITMAP
f0
f0
ENDCHAR
STARTCHAR Zcaron
ENCODING 174
SWIDTH 667 0
DWIDTH 9 0
BBX 8 15 0 0
BITMAP
6c
38
10
00
ff
c3
87
8e
0c
18
30
71
e1
c3
ff
ENDCHAR
STARTCHAR Zabovedot
ENCODING 175
SWIDTH 667 0
DWIDTH 9 0
BBX 8 14 0 0
BITMAP
18
18
00
ff
c3
87
8e
0c
18
30
71
e1
c3
ff
ENDCHAR
STARTCHAR degree
ENCODING 176
SWIDTH 400 0
DWIDTH 6 0
BBX 4 4 1 7
BITMAP
60
90
90
60
ENDCHAR
STARTCHAR aogonek
ENCODING 177
SWIDTH 611 0
DWIDTH 9 0
BBX 8 10 0 -3
BITMAP
3c
66
06
3e
c6
ce
77
10
20
38
ENDCHAR
STARTCHAR ogonek
ENCODING 178
SWIDTH 333 0
DWIDTH 5 0
BBX 3 3 1 -3
BITMAP
40
80
e0
ENDCHAR
STARTCHAR lstroke
ENCODING 179
SWIDTH 352 0
DWIDTH 5 0
BBX 4 11 0 0
BITMAP
e0
60
60
60
70
e0
60
60
60
60
f0
ENDCHAR
STARTCHAR acute
ENCODING 180
SWIDTH 333 0
DWIDTH 6 0
BBX 4 3 1 8
BITMAP
30
60
80
ENDCHAR
STARTCHAR lcaron
ENCODING 181
SWIDTH 504 0
DWIDTH 7 0
BBX 6 12 0 0
BITMAP
0c
ec
6c
64
68
60
60
60
60
60
60
f0
ENDCHAR
STARTCHAR sacute
ENCODING 182
SWIDTH 500 0
DWIDTH 7 0
BBX 6 11 0 0
BITMAP
0c
18
20
00
7c
c4
e0
78
1c
8c
f8
ENDCHAR
STARTCHAR caron
ENCODING 183
SWIDTH 333 0
DWIDTH 7 0
BBX 5 3 1 8
BITMAP
d8
70
20
ENDCHAR
STARTCHAR cedilla
ENCODING 184
SWIDTH 333 0
DWIDTH 5 0
BBX 3 3 1 -3
BITMAP
40
20
e0
ENDCHAR
STARTCHAR scaron
ENCODING 185
SWIDTH 500 0
DWIDTH 7 0
BBX 6 11 0 0
BITMAP
d8
70
20
00
7c
c4
e0
78
1c
8c
f8
ENDCHAR
STARTCHAR scedilla
ENCODING 186
SWIDTH 500 0
DWIDTH 7 0
BBX 6 10 0 -3
BITMAP
7c
c4
e0
78
1c
8c
f8
20
10
70
ENDCHAR
STARTCHAR tcaron
ENCODING 187
SWIDTH 426 0
DWIDTH 6 0
BBX 6 13 0 0
BITMAP
0c
0c
0c
24
28
60
f8
60
60
60
64
64
38
ENDCHAR
STARTCHAR zacute
ENCODING 188
SWIDTH 537 0
DWIDTH 7 0
BBX 6 11 0 0
BITMAP
0c
18
20
00
fc
8c
18
30
60
c4
fc
ENDCHAR
STARTCHAR doubleacute
ENCODING 189
SWIDTH 333 0
DWIDTH 9 0
BBX 7 3 1 8
BITMAP
66
cc
88
ENDCHAR
STARTCHAR zcaron
ENCODING 190
SWIDTH 537 0
DWIDTH 7 0
BBX 6 11 0 0
BITMAP
d8
70
20
00
fc
8c
18
30
60
c4
fc
ENDCHAR
STARTCHAR zabovedot
ENCODING 191
SWIDTH 537 0
DWIDTH 7 0
BBX 6 10 0 0
BITMAP
30
30
00
fc
8c
18
30
60
c4
fc
ENDCHAR
STARTCHAR Racute
ENCODING 192
SWIDTH 815 0
DWIDTH 12 0
BBX 11 15 0 0
BITMAP
0300
0600
0800
0000
ff00
6380
6180
6180
6300
7e00
6300
6300
6180
61a0
f1c0
ENDCHAR
STARTCHAR Aacute
ENCODING 193
SWIDTH 759 0
DWIDTH 11 0
BBX 10 15 0 0
BITMAP
0300
0600
0800
0000
0c00
0c00
1600
1600
1200
2300
2300
3f00
4180
4180
e3c0
ENDCHAR
STARTCHAR Acircumflex
ENCODING 194
SWIDTH 759 0
DWIDTH 11 0
BBX 10 15 0 0
BITMAP
0400
0e00
1100
0000
0c00
0c00
1600
1600
1200
2300
2300
3f00
4180
4180
e3c0
ENDCHAR
STARTCHAR Abreve
ENCODING 195
SWIDTH 759 0
DWIDTH 11 0
BBX 10 15 0 0
BITMAP
2200
3600
1c00
0000
0c00
0c00
1600
1600
1200
2300
2300
3f00
4180
4180
e3c0
ENDCHAR
STARTCHAR Adiaeresis
ENCODING 196
SWIDTH 759 0
DWIDTH 11 0
BBX 10 14 0 0
BITMAP
3300
3300
0000
0c00
0c00
1600
1600
1200
2300
2300
3f00
4180
4180
e3c0
ENDCHAR
STARTCHAR Lacute
ENCODING 197
SWIDTH 722 0
DWIDTH 10 0
BBX 9 15 0 0
BITMAP
1800
3000
4000
0000
f000
6000
6000
6000
6000
6000
6000
6080
6080
6180
ff80
ENDCHAR
STARTCHAR Cacute
ENCODING 198
SWIDTH 778 0
DWIDTH 11 0
BBX 10 15 0 0
BITMAP
0180
0300
0400
0000
1f40
70c0
6040
c040
c000
c000
c000
c000
6040
70c0
1f00
ENDCHAR
STARTCHAR Ccedilla
ENCODING 199
SWIDTH 778 0
DWIDTH 11 0
BBX 10 14 0 -3
BITMAP
1f40
70c0
6040
c040
c000
c000
c000
c000
6040
70c0
1f00
0400
0200
0e00
ENDCHAR
STARTCHAR Ccaron
ENCODING 200
SWIDTH 778 0
DWIDTH 11 0
BBX 10 15 0 0
BITMAP
1b00
0e00
0400
0000
1f40
70c0
6040
c040
c000
c000
c000
c000
6040
70c0
1f00
ENDCHAR
STARTCHAR Eacute
ENCODING 201
SWIDTH 759 0
DWIDTH 10 0
BBX 9 15 0 0
BITMAP
0300
0600
0800
0000
ff80
6180
6080
6480
6400
7c00
6400
6480
6080
6180
ff80
ENDCHAR
STARTCHAR Eogonek
ENCODING 202
SWIDTH 759 0
DWIDTH 10 0
BBX 9 14 0 -3
BITMAP
ff80
6180
6080
6480
6400
7c00
6400
6480
6080
6180
ff80
0800
1000
1c00
ENDCHAR
STARTCHAR Ediaeresis
ENCODING 203
SWIDTH 759 0
DWIDTH 10 0
BBX 9 14 0 0
BITMAP
3300
3300
0000
ff80
6180
6080
6480
6400
7c00
6400
6480
6080
6180
ff80
ENDCHAR
STARTCHAR Ecaron
ENCODING 204
SWIDTH 759 0
DWIDTH 10 0
BBX 9 15 0 0
BITMAP
3600
1c00
0800
0000
ff80
6180
6080
6480
6400
7c00
6400
6480
6080
6180
ff80
ENDCHAR
STARTCHAR Iacute
ENCODING 205
SWIDTH 444 0
DWIDTH 7 0
BBX 5 15 1 0
BITMAP
18
30
40
00
f0
60
60
60
60
60
60
60
60
60
f0
ENDCHAR
STARTCHAR Icircumflex
ENCODING 206
SWIDTH 444 0
DWIDTH 7 0
BBX 5 15 1 0
BITMAP
20
70
88
00
f0
60
60
60
60
60
60
60
60
60
f0
ENDCHAR
STARTCHAR Dcaron
ENCODING 207
SWIDTH 833 0
DWIDTH 12 0
BBX 11 15 0 0
BITMAP
3600
1c00
0800
0000
ff00
61c0
60c0
6060
6060
6060
6060
6060
60c0
61c0
ff00
ENDCHAR
STARTCHAR Dstroke
ENCODING 208
SWIDTH 833 0
DWIDTH 12 0
BBX 11 11 0 0
BITMAP
ff00
61c0
60c0
6060
6060
f860
6060
6060
60c0
61c0
ff00
ENDCHAR
STARTCHAR Nacute
ENCODING 209
SWIDTH 833 0
DWIDTH 12 0
BBX 11 15 0 0
BITMAP
0180
0300
0400
0000
e0e0
7040
7840
5c40
4c40
4640
4740
43c0
41c0
40c0
e040
ENDCHAR
STARTCHAR Ncaron
ENCODING 210
SWIDTH 833 0
DWIDTH 12 0
BBX 11 15 0 0
BITMAP
1b00
0e00
0400
0000
e0e0
7040
7840
5c40
4c40
4640
4740
43c0
41c0
40c0
e040
ENDCHAR
STARTCHAR Oacute
ENCODING 211
SWIDTH 833 0
DWIDTH 12 0
BBX 11 15 0 0
BITMAP
00c0
0180
0200
0000
1f00
71c0
60c0
c060
c060
c060
c060
c060
60c0
71c0
1f00
ENDCHAR
STARTCHAR Ocircumflex
ENCODING 212
SWIDTH 833 0
DWIDTH 12 0
BBX 11 15 0 0
BITMAP
0400
0e00
1100
0000
1f00
71c0
60c0
c060
c060
c060
c060
c060
60c0
71c0
1f00
ENDCHAR
STARTCHAR Odoubleacute
ENCODING 213
SWIDTH 833 0
DWIDTH 12 0
BBX 11 15 0 0
BITMAP
0cc0
1980
1100
0000
1f00
71c0
60c0
c060
c060
c060
c060
c060
60c0
71c0
1f00
ENDCHAR
STARTCHAR Odiaeresis
ENCODING 214
SWIDTH 833 0
DWIDTH 12 0
BBX 11 14 0 0
BITMAP
1980
1980
0000
1f00
71c0
60c0
c060
c060
c060
c060
c060
60c0
71c0
1f00
ENDCHAR
STARTCHAR multiply
ENCODING 215
SWIDTH 606 0
DWIDTH 8 0
BBX 8 7 0 1
BITMAP
c3
66
3c
18
3c
66
c3
ENDCHAR
STARTCHAR Rcaron
ENCODING 216
SWIDTH 815 0
DWIDTH 12 0
BBX 11 15 0 0
BITMAP
3600
1c00
0800
0000
ff00
6380
6180
6180
6300
7e00
6300
6300
6180
61a0
f1c0
ENDCHAR
STARTCHAR Uring
ENCODING 217
SWIDTH 833 0
DWIDTH 12 0
BBX 11 15 0 0
BITMAP
0600
0900
0600
0000
f0e0
6040
6040
6040
6040
6040
6040
6040
6040
3080
1f00
ENDCHAR
STARTCHAR Uacute
ENCODING 218
SWIDTH 833 0
DWIDTH 12 0
BBX 11 15 0 0
BITMAP
0180
0300
0400
0000
f0e0
6040
6040
6040
6040
6040
6040
6040
6040
3080
1f00
ENDCHAR
STARTCHAR Udoubleacute
ENCODING 219
SWIDTH 833 0
DWIDTH 12 0
BBX 11 15 0 0
BITMAP
0cc0
1980
1100
0000
f0e0
6040
6040
6040
6040
6040
6040
6040
6040
3080
1f00
ENDCHAR
STARTCHAR Udiaeresis
ENCODING 220
SWIDTH 833 0
DWIDTH 12 0
BBX 11 14 0 0
BITMAP
1980
1980
0000
f0e0
6040
6040
6040
6040
6040
6040
6040
6040
3080
1f00
ENDCHAR
STARTCHAR Yacute
ENCODING 221
SWIDTH 722 0
DWIDTH 11 0
BBX 10 15 0 0
BITMAP
0180
0300
0400
0000
f1c0
6080
3100
3100
1a00
1a00
0c00
0c00
0c00
0c00
1e00
ENDCHAR
STARTCHAR Tcedilla
ENCODING 222
SWIDTH 722 0
DWIDTH 11 0
BBX 10 14 0 -3
BITMAP
ffc0
ccc0
8c40
8c40
0c00
0c00
0c00
0c00
0c00
0c00
1e00
0800
0400
1c00
ENDCHAR
STARTCHAR ssharp
ENCODING 223
SWIDTH 611 0
DWIDTH 9 0
BBX 8 11 0 0
BITMAP
1e
23
63
62
6c
62
63
63
63
63
ee
ENDCHAR
STARTCHAR racute
ENCODING 224
SWIDTH 519 0
DWIDTH 7 0
BBX 7 11 0 0
BITMAP
06
0c
10
00
ee
76
60
60
60
60
f0
ENDCHAR
STARTCHAR aacute
ENCODING 225
SWIDTH 611 0
DWIDTH 9 0
BBX 8 11 0 0
BITMAP
0c
18
20
00
3c
66
06
3e
c6
ce
77
ENDCHAR
STARTCHAR acircumflex
ENCODING 226
SWIDTH 611 0
DWIDTH 9 0
BBX 8 11 0 0
BITMAP
10
38
6c
00
3c
66
06
3e
c6
ce
77
ENDCHAR
STARTCHAR abreve
ENCODING 227
SWIDTH 611 0
DWIDTH 9 0
BBX 8 11 0 0
BITMAP
44
6c
38
00
3c
66
06
3e
c6
ce
77
ENDCHAR
STARTCHAR adiaeresis
ENCODING 228
SWIDTH 611 0
DWIDTH 9 0
BBX 8 10 0 0
BITMAP
6c
6c
00
3c
66
06
3e
c6
ce
77
ENDCHAR
STARTCHAR lacute
ENCODING 229
SWIDTH 352 0
DWIDTH 5 0
BBX 5 15 0 0
BITMAP
18
30
40
00
e0
60
60
60
60
60
60
60
60
60
f0
ENDCHAR
STARTCHAR cacute
ENCODING 230
SWIDTH 556 0
DWIDTH 8 0
BBX 7 11 0 0
BITMAP
06
0c
10
00
3c
66
c6
c0
c2
66
3c
ENDCHAR
STARTCHAR ccedilla
ENCODING 231
SWIDTH 556 0
DWIDTH 8 0
BBX 7 10 0 -3
BITMAP
3c
66
c6
c0
c2
66
3c
10
08
38
ENDCHAR
STARTCHAR ccaron
ENCODING 232
SWIDTH 556 0
DWIDTH 8 0
BBX 7 11 0 0
BITMAP
6c
38
10
00
3c
66
c6
c0
c2
66
3c
ENDCHAR
STARTCHAR eacute
ENCODING 233
SWIDTH 574 0
DWIDTH 9 0
BBX 8 11 0 0
BITMAP
0c
18
20
00
3c
66
c3
ff
c0
63
3e
ENDCHAR
STARTCHAR eogonek
ENCODING 234
SWIDTH 574 0
DWIDTH 9 0
BBX 8 10 0 -3
BITMAP
3c
66
c3
ff
c0
63
3e
10
20
38
ENDCHAR
STARTCHAR ediaeresis
ENCODING 235
SWIDTH 574 0
DWIDTH 9 0
BBX 8 10 0 0
BITMAP
6c
6c
00
3c
66
c3
ff
c0
63
3e
ENDCHAR
STARTCHAR ecaron
ENCODING 236
SWIDTH 574 0
DWIDTH 9 0
BBX 8 11 0 0
BITMAP
6c
38
10
00
3c
66
c3
ff
c0
63
3e
ENDCHAR
STARTCHAR iacute
ENCODING 237
SWIDTH 370 0
DWIDTH 5 0
BBX 4 11 0 0
BITMAP
30
60
80
00
e0
60
60
60
60
60
f0
ENDCHAR
STARTCHAR icircumflex
ENCODING 238
SWIDTH 370 0
DWIDTH 5 0
BBX 5 11 0 0
BITMAP
20
70
d8
00
e0
60
60
60
60
60
f0
ENDCHAR
STARTCHAR dcaron
ENCODING 239
SWIDTH 864 0
DWIDTH 12 0
BBX 11 12 0 0
BITMAP
0060
0760
0360
0320
0340
3b00
6700
c300
c300
c300
6700
3b80
ENDCHAR
STARTCHAR dstroke
ENCODING 240
SWIDTH 864 0
DWIDTH 12 0
BBX 11 11 0 0
BITMAP
0700
0300
1fe0
0300
3b00
6700
c300
c300
c300
6700
3b80
ENDCHAR
STARTCHAR nacute
ENCODING 241
SWIDTH 685 0
DWIDTH 10 0
BBX 9 11 0 0
BITMAP
0600
0c00
1000
0000
ee00
7300
6300
6300
6300
6300
f780
ENDCHAR
STARTCHAR ncaron
ENCODING 242
SWIDTH 685 0
DWIDTH 10 0
BBX 9 11 0 0
BITMAP
6c00
3800
1000
0000
ee00
7300
6300
6300
6300
6300
f780
ENDCHAR
STARTCHAR oacute
ENCODING 243
SWIDTH 611 0
DWIDTH 9 0
BBX 8 11 0 0
BITMAP
0c
18
20
00
3c
66
c3
c3
c3
66
3c
ENDCHAR
STARTCHAR ocircumflex
ENCODING 244
SWIDTH 611 0
DWIDTH 9 0
BBX 8 11 0 0
BITMAP
10
38
6c
00
3c
66
c3
c3
c3
66
3c
ENDCHAR
STARTCHAR odoubleacute
ENCODING 245
SWIDTH 611 0
DWIDTH 9 0
BBX 8 11 0 0
BITMAP
33
66
44
00
3c
66
c3
c3
c3
66
3c
ENDCHAR
STARTCHAR odiaeresis
ENCODING 246
SWIDTH 611 0
DWIDTH 9 0
BBX 8 10 0 0
BITMAP
6c
6c
00
3c
66
c3
c3
c3
66
3c
ENDCHAR
STARTCHAR division
ENCODING 247
SWIDTH 606 0
DWIDTH 8 0
BBX 8 7 0 1
BITMAP
18
18
00
ff
00
18
18
ENDCHAR
STARTCHAR rcaron
ENCODING 248
SWIDTH 519 0
DWIDTH 7 0
BBX 7 11 0 0
BITMAP
6c
38
10
00
ee
76
60
60
60
60
f0
ENDCHAR
STARTCHAR uring
ENCODING 249
SWIDTH 685 0
DWIDTH 10 0
BBX 9 11 0 0
BITMAP
1800
2400
1800
0000
e700
6300
6300
6300
6300
6700
3b80
ENDCHAR
STARTCHAR uacute
ENCODING 250
SWIDTH 685 0
DWIDTH 10 0
BBX 9 11 0 0
BITMAP
0c00
1800
2000
0000
f780
6300
6300
6300
6300
6700
3b80
ENDCHAR
STARTCHAR udoubleacute
ENCODING 251
SWIDTH 685 0
DWIDTH 10 0
BBX 9 11 0 0
BITMAP
3300
6600
4400
0000
e700
6300
6300
6300
6300
6700
3b80
ENDCHAR
STARTCHAR udiaeresis
ENCODING 252
SWIDTH 685 0
DWIDTH 10 0
BBX 9 10 0 0
BITMAP
3600
3600
0000
f780
6300
6300
6300
6300
6700
3b80
ENDCHAR
STARTCHAR yacute
ENCODING 253
SWIDTH 611 0
DWIDTH 7 0
BBX 8 14 -1 -3
BITMAP
06
0c
10
00
f7
62
62
34
34
18
18
10
d0
e0
ENDCHAR
STARTCHAR tcedilla
ENCODING 254
SWIDTH 426 0
DWIDTH 6 0
BBX 6 13 0 -3
BITMAP
20
20
60
f8
60
60
60
64
64
38
20
10
70
ENDCHAR
STARTCHAR abovedot
ENCODING 255
SWIDTH 333 0
DWIDTH 4 0
BBX 2 2 1 8
BITMAP
c0
c0
ENDCHAR
ENDFONT
